# xmcd
#
# Track frame offsets: 
#        150
#        20212
#        41347
#        56134
#        72567
#        85921
#        99818
#        115722
#        133638
#        151744
#        163447
#        179964
#
# Disc length: 2651 seconds
#
# Revision: 0
# Processed by: cddbd v1.5.2PL0 Copyright (c) Steve Scherf et al.
# Submitted via: ExactAudioCopyFreeDBPlugin 1.0
#
DISCID=a70a590c
DTITLE=Sherry Holly - Santa Fe Lights
DYEAR=2002
DGENRE=Country
TTITLE0=Can't Have Your Cake
TTITLE1=Cost Of Loving You
TTITLE2=Kiss The Blues Good-by
TTITLE3=Spy From The FBI
TTITLE4=He Ain't Much Of Nothin'
TTITLE5=Nobody Knowa My Name
TTITLE6=Love At First Sight
TTITLE7=Ticket To Savannah
TTITLE8=Just Like Me
TTITLE9=Remedy To Ease The Pain
TTITLE10=Santa Fe Lights
TTITLE11=An American Hero
EXTD=
EXTT0=
EXTT1=
EXTT2=
EXTT3=
EXTT4=
EXTT5=
EXTT6=
EXTT7=
EXTT8=
EXTT9=
EXTT10=
EXTT11=
PLAYORDER=
